<mxfile host="app.diagrams.net" modified="2023-12-22T08:23:57.437Z" agent="Mozilla/5.0 (Macintosh; Intel Mac OS X 10_15_7) AppleWebKit/605.1.15 (KHTML, like Gecko) Version/17.1 Safari/605.1.15" etag="L2UgXHHc4z66k51HGyGp" version="22.1.11" type="device">
  <diagram name="Page-1" id="chyjRLsChrQyaDLeEmY6">
    <mxGraphModel dx="1026" dy="618" grid="1" gridSize="10" guides="1" tooltips="1" connect="1" arrows="1" fold="1" page="1" pageScale="1" pageWidth="827" pageHeight="1169" math="0" shadow="0">
      <root>
        <mxCell id="0" />
        <mxCell id="1" parent="0" />
        <mxCell id="Zh25cUM7GFCUlB0kHRxQ-24" value="" style="edgeStyle=orthogonalEdgeStyle;rounded=0;orthogonalLoop=1;jettySize=auto;html=1;" parent="1" source="Zh25cUM7GFCUlB0kHRxQ-1" target="Zh25cUM7GFCUlB0kHRxQ-21" edge="1">
          <mxGeometry relative="1" as="geometry" />
        </mxCell>
        <mxCell id="Zh25cUM7GFCUlB0kHRxQ-1" value="LFSR" style="rounded=0;whiteSpace=wrap;html=1;" parent="1" vertex="1">
          <mxGeometry x="80" y="370" width="70" height="40" as="geometry" />
        </mxCell>
        <mxCell id="Zh25cUM7GFCUlB0kHRxQ-33" value="" style="edgeStyle=orthogonalEdgeStyle;rounded=0;orthogonalLoop=1;jettySize=auto;html=1;" parent="1" source="Zh25cUM7GFCUlB0kHRxQ-2" target="Zh25cUM7GFCUlB0kHRxQ-30" edge="1">
          <mxGeometry relative="1" as="geometry" />
        </mxCell>
        <mxCell id="Zh25cUM7GFCUlB0kHRxQ-2" value="Training Bits" style="rounded=0;whiteSpace=wrap;html=1;" parent="1" vertex="1">
          <mxGeometry x="80" y="290" width="70" height="40" as="geometry" />
        </mxCell>
        <mxCell id="Zh25cUM7GFCUlB0kHRxQ-3" value="Source Data" style="rounded=0;whiteSpace=wrap;html=1;" parent="1" vertex="1">
          <mxGeometry x="80" y="210" width="70" height="40" as="geometry" />
        </mxCell>
        <mxCell id="Zh25cUM7GFCUlB0kHRxQ-5" value="" style="edgeStyle=orthogonalEdgeStyle;rounded=0;orthogonalLoop=1;jettySize=auto;html=1;startArrow=classic;startFill=1;endArrow=none;endFill=0;" parent="1" source="Zh25cUM7GFCUlB0kHRxQ-4" target="Zh25cUM7GFCUlB0kHRxQ-3" edge="1">
          <mxGeometry relative="1" as="geometry" />
        </mxCell>
        <mxCell id="Zh25cUM7GFCUlB0kHRxQ-29" value="" style="edgeStyle=orthogonalEdgeStyle;rounded=0;orthogonalLoop=1;jettySize=auto;html=1;" parent="1" source="Zh25cUM7GFCUlB0kHRxQ-4" target="Zh25cUM7GFCUlB0kHRxQ-13" edge="1">
          <mxGeometry relative="1" as="geometry" />
        </mxCell>
        <mxCell id="Zh25cUM7GFCUlB0kHRxQ-4" value="QPSK Map" style="rounded=0;whiteSpace=wrap;html=1;" parent="1" vertex="1">
          <mxGeometry x="170" y="210" width="70" height="40" as="geometry" />
        </mxCell>
        <mxCell id="Zh25cUM7GFCUlB0kHRxQ-8" value="Preamble" style="text;html=1;align=center;verticalAlign=middle;resizable=0;points=[];autosize=1;strokeColor=none;fillColor=none;" parent="1" vertex="1">
          <mxGeometry x="80" y="410" width="70" height="30" as="geometry" />
        </mxCell>
        <mxCell id="Zh25cUM7GFCUlB0kHRxQ-15" value="" style="edgeStyle=orthogonalEdgeStyle;rounded=0;orthogonalLoop=1;jettySize=auto;html=1;" parent="1" source="Zh25cUM7GFCUlB0kHRxQ-13" target="Zh25cUM7GFCUlB0kHRxQ-14" edge="1">
          <mxGeometry relative="1" as="geometry" />
        </mxCell>
        <mxCell id="Zh25cUM7GFCUlB0kHRxQ-13" value="Reshape to &amp;nbsp; &amp;nbsp; &amp;nbsp;N_Carr x N_OFDM" style="rounded=0;whiteSpace=wrap;html=1;" parent="1" vertex="1">
          <mxGeometry x="260" y="210" width="120" height="40" as="geometry" />
        </mxCell>
        <mxCell id="Zh25cUM7GFCUlB0kHRxQ-18" value="" style="edgeStyle=orthogonalEdgeStyle;rounded=0;orthogonalLoop=1;jettySize=auto;html=1;" parent="1" source="Zh25cUM7GFCUlB0kHRxQ-14" target="Zh25cUM7GFCUlB0kHRxQ-16" edge="1">
          <mxGeometry relative="1" as="geometry" />
        </mxCell>
        <mxCell id="Zh25cUM7GFCUlB0kHRxQ-14" value="OSIFFT" style="rounded=0;whiteSpace=wrap;html=1;" parent="1" vertex="1">
          <mxGeometry x="400" y="210" width="70" height="40" as="geometry" />
        </mxCell>
        <mxCell id="Zh25cUM7GFCUlB0kHRxQ-48" value="" style="edgeStyle=orthogonalEdgeStyle;rounded=0;orthogonalLoop=1;jettySize=auto;html=1;" parent="1" source="Zh25cUM7GFCUlB0kHRxQ-16" target="Zh25cUM7GFCUlB0kHRxQ-19" edge="1">
          <mxGeometry relative="1" as="geometry" />
        </mxCell>
        <mxCell id="Zh25cUM7GFCUlB0kHRxQ-16" value="Insert CP" style="rounded=0;whiteSpace=wrap;html=1;" parent="1" vertex="1">
          <mxGeometry x="500" y="210" width="70" height="40" as="geometry" />
        </mxCell>
        <mxCell id="Zh25cUM7GFCUlB0kHRxQ-47" style="edgeStyle=orthogonalEdgeStyle;rounded=0;orthogonalLoop=1;jettySize=auto;html=1;exitX=1;exitY=0.5;exitDx=0;exitDy=0;entryX=0.75;entryY=0;entryDx=0;entryDy=0;" parent="1" source="Zh25cUM7GFCUlB0kHRxQ-19" target="Zh25cUM7GFCUlB0kHRxQ-41" edge="1">
          <mxGeometry relative="1" as="geometry" />
        </mxCell>
        <mxCell id="Zh25cUM7GFCUlB0kHRxQ-19" value="Normalize" style="rounded=0;whiteSpace=wrap;html=1;" parent="1" vertex="1">
          <mxGeometry x="640" y="210" width="70" height="40" as="geometry" />
        </mxCell>
        <mxCell id="Zh25cUM7GFCUlB0kHRxQ-23" value="" style="edgeStyle=orthogonalEdgeStyle;rounded=0;orthogonalLoop=1;jettySize=auto;html=1;" parent="1" source="Zh25cUM7GFCUlB0kHRxQ-21" target="Zh25cUM7GFCUlB0kHRxQ-22" edge="1">
          <mxGeometry relative="1" as="geometry" />
        </mxCell>
        <mxCell id="Zh25cUM7GFCUlB0kHRxQ-21" value="BPSK Map" style="rounded=0;whiteSpace=wrap;html=1;" parent="1" vertex="1">
          <mxGeometry x="170" y="370" width="70" height="40" as="geometry" />
        </mxCell>
        <mxCell id="Zh25cUM7GFCUlB0kHRxQ-26" value="" style="edgeStyle=orthogonalEdgeStyle;rounded=0;orthogonalLoop=1;jettySize=auto;html=1;" parent="1" source="Zh25cUM7GFCUlB0kHRxQ-22" target="Zh25cUM7GFCUlB0kHRxQ-25" edge="1">
          <mxGeometry relative="1" as="geometry" />
        </mxCell>
        <mxCell id="Zh25cUM7GFCUlB0kHRxQ-22" value="Upsampling" style="rounded=0;whiteSpace=wrap;html=1;" parent="1" vertex="1">
          <mxGeometry x="400" y="370" width="70" height="40" as="geometry" />
        </mxCell>
        <mxCell id="Zh25cUM7GFCUlB0kHRxQ-45" style="edgeStyle=orthogonalEdgeStyle;rounded=0;orthogonalLoop=1;jettySize=auto;html=1;exitX=1;exitY=0.5;exitDx=0;exitDy=0;entryX=0.25;entryY=0;entryDx=0;entryDy=0;" parent="1" source="Zh25cUM7GFCUlB0kHRxQ-25" target="Zh25cUM7GFCUlB0kHRxQ-41" edge="1">
          <mxGeometry relative="1" as="geometry" />
        </mxCell>
        <mxCell id="Zh25cUM7GFCUlB0kHRxQ-25" value="Normalize" style="rounded=0;whiteSpace=wrap;html=1;" parent="1" vertex="1">
          <mxGeometry x="560" y="370" width="70" height="40" as="geometry" />
        </mxCell>
        <mxCell id="Zh25cUM7GFCUlB0kHRxQ-37" value="" style="edgeStyle=orthogonalEdgeStyle;rounded=0;orthogonalLoop=1;jettySize=auto;html=1;" parent="1" source="Zh25cUM7GFCUlB0kHRxQ-30" target="Zh25cUM7GFCUlB0kHRxQ-35" edge="1">
          <mxGeometry relative="1" as="geometry" />
        </mxCell>
        <mxCell id="Zh25cUM7GFCUlB0kHRxQ-30" value="BPSK Map" style="rounded=0;whiteSpace=wrap;html=1;" parent="1" vertex="1">
          <mxGeometry x="170" y="290" width="70" height="40" as="geometry" />
        </mxCell>
        <mxCell id="Zh25cUM7GFCUlB0kHRxQ-46" style="edgeStyle=orthogonalEdgeStyle;rounded=0;orthogonalLoop=1;jettySize=auto;html=1;exitX=1;exitY=0.5;exitDx=0;exitDy=0;entryX=0.5;entryY=0;entryDx=0;entryDy=0;" parent="1" source="Zh25cUM7GFCUlB0kHRxQ-34" target="Zh25cUM7GFCUlB0kHRxQ-41" edge="1">
          <mxGeometry relative="1" as="geometry" />
        </mxCell>
        <mxCell id="Zh25cUM7GFCUlB0kHRxQ-34" value="Normalize" style="rounded=0;whiteSpace=wrap;html=1;" parent="1" vertex="1">
          <mxGeometry x="600" y="290" width="70" height="40" as="geometry" />
        </mxCell>
        <mxCell id="Zh25cUM7GFCUlB0kHRxQ-39" value="" style="edgeStyle=orthogonalEdgeStyle;rounded=0;orthogonalLoop=1;jettySize=auto;html=1;" parent="1" source="Zh25cUM7GFCUlB0kHRxQ-35" target="Zh25cUM7GFCUlB0kHRxQ-38" edge="1">
          <mxGeometry relative="1" as="geometry" />
        </mxCell>
        <mxCell id="Zh25cUM7GFCUlB0kHRxQ-35" value="OSIFFT" style="rounded=0;whiteSpace=wrap;html=1;" parent="1" vertex="1">
          <mxGeometry x="400" y="290" width="70" height="40" as="geometry" />
        </mxCell>
        <mxCell id="Zh25cUM7GFCUlB0kHRxQ-40" value="" style="edgeStyle=orthogonalEdgeStyle;rounded=0;orthogonalLoop=1;jettySize=auto;html=1;" parent="1" source="Zh25cUM7GFCUlB0kHRxQ-38" target="Zh25cUM7GFCUlB0kHRxQ-34" edge="1">
          <mxGeometry relative="1" as="geometry" />
        </mxCell>
        <mxCell id="Zh25cUM7GFCUlB0kHRxQ-38" value="Insert CP" style="rounded=0;whiteSpace=wrap;html=1;" parent="1" vertex="1">
          <mxGeometry x="500" y="290" width="70" height="40" as="geometry" />
        </mxCell>
        <mxCell id="IjCavYnLtpRJA7OBruEh-2" style="edgeStyle=orthogonalEdgeStyle;rounded=0;orthogonalLoop=1;jettySize=auto;html=1;exitX=0.5;exitY=1;exitDx=0;exitDy=0;entryX=0.5;entryY=0;entryDx=0;entryDy=0;" edge="1" parent="1" source="Zh25cUM7GFCUlB0kHRxQ-41" target="IjCavYnLtpRJA7OBruEh-1">
          <mxGeometry relative="1" as="geometry" />
        </mxCell>
        <mxCell id="Zh25cUM7GFCUlB0kHRxQ-41" value="TX Signal&lt;br&gt;[Preamble, Training, Data]" style="whiteSpace=wrap;html=1;" parent="1" vertex="1">
          <mxGeometry x="620" y="440" width="150" height="60" as="geometry" />
        </mxCell>
        <mxCell id="Zh25cUM7GFCUlB0kHRxQ-50" value="TX" style="text;html=1;align=center;verticalAlign=middle;resizable=0;points=[];autosize=1;strokeColor=none;fillColor=none;" parent="1" vertex="1">
          <mxGeometry x="70" y="160" width="40" height="30" as="geometry" />
        </mxCell>
        <mxCell id="Zh25cUM7GFCUlB0kHRxQ-81" value="" style="rounded=0;whiteSpace=wrap;html=1;fillColor=none;dashed=1;dashPattern=8 8;" parent="1" vertex="1">
          <mxGeometry x="54" y="190" width="720" height="370" as="geometry" />
        </mxCell>
        <mxCell id="IjCavYnLtpRJA7OBruEh-1" value="Upconvert" style="rounded=0;whiteSpace=wrap;html=1;" vertex="1" parent="1">
          <mxGeometry x="660" y="520" width="70" height="40" as="geometry" />
        </mxCell>
      </root>
    </mxGraphModel>
  </diagram>
</mxfile>
